{
    "asset" : {
        "generator" : "Khronos glTF Blender I/O v1.6.16",
        "version" : "2.0"
    },
    "scene" : 0,
    "scenes" : [
        {
            "name" : "Scene",
            "nodes" : [
                0,
                1,
                2,
                3,
                4,
                5
            ]
        }
    ],
    "nodes" : [
        {
            "mesh" : 0,
            "name" : "stoneBench",
            "rotation" : [
                0.7071068286895752,
                0,
                0,
                0.7071067094802856
            ],
            "translation" : [
                0,
                6.6635003089904785,
                -0.000661486410535872
            ]
        },
        {
            "mesh" : 1,
            "name" : "benchExtend",
            "rotation" : [
                0.7071068286895752,
                0,
                0,
                0.7071067094802856
            ],
            "translation" : [
                -5.333408355712891,
                6.46043062210083,
                0.06058239936828613
            ]
        },
        {
            "mesh" : 2,
            "name" : "legExtend1",
            "rotation" : [
                0.7071068286895752,
                0,
                0,
                0.7071067094802856
            ],
            "translation" : [
                -4.932838439941406,
                -0.3364994525909424,
                -2.3465800285339355
            ]
        },
        {
            "mesh" : 3,
            "name" : "door",
            "rotation" : [
                0.7071068286895752,
                0,
                0,
                0.7071067094802856
            ],
            "translation" : [
                -4.068641185760498,
                1.9883735179901123,
                2.3840529918670654
            ]
        },
        {
            "mesh" : 4,
            "name" : "workBench",
            "rotation" : [
                0.7071068286895752,
                0,
                0,
                0.7071067094802856
            ],
            "translation" : [
                0,
                -1.3364999294281006,
                -0.000661486410535872
            ]
        },
        {
            "mesh" : 5,
            "name" : "door1",
            "rotation" : [
                0.7071068286895752,
                0,
                0,
                0.7071067094802856
            ],
            "translation" : [
                4.337528228759766,
                0.36498379707336426,
                2.3925068378448486
            ]
        }
    ],
    "animations" : [
        {
            "channels" : [
                {
                    "sampler" : 0,
                    "target" : {
                        "node" : 1,
                        "path" : "rotation"
                    }
                }
            ],
            "name" : "ExtendBench",
            "samplers" : [
                {
                    "input" : 24,
                    "interpolation" : "LINEAR",
                    "output" : 25
                }
            ]
        },
        {
            "channels" : [
                {
                    "sampler" : 0,
                    "target" : {
                        "node" : 2,
                        "path" : "rotation"
                    }
                }
            ],
            "name" : "ExtendBase",
            "samplers" : [
                {
                    "input" : 26,
                    "interpolation" : "LINEAR",
                    "output" : 27
                }
            ]
        },
        {
            "channels" : [
                {
                    "sampler" : 0,
                    "target" : {
                        "node" : 3,
                        "path" : "rotation"
                    }
                }
            ],
            "name" : "OpenDoorRight",
            "samplers" : [
                {
                    "input" : 24,
                    "interpolation" : "LINEAR",
                    "output" : 28
                }
            ]
        },
        {
            "channels" : [
                {
                    "sampler" : 0,
                    "target" : {
                        "node" : 5,
                        "path" : "rotation"
                    }
                }
            ],
            "name" : "OpenLeftDoor",
            "samplers" : [
                {
                    "input" : 24,
                    "interpolation" : "LINEAR",
                    "output" : 29
                }
            ]
        }
    ],
    "materials" : [
        {
            "doubleSided" : true,
            "name" : "stoneBenchM",
            "pbrMetallicRoughness" : {
                "metallicFactor" : 0,
                "roughnessFactor" : 0.5
            }
        },
        {
            "doubleSided" : true,
            "name" : "WoodM",
            "pbrMetallicRoughness" : {
                "metallicFactor" : 0,
                "roughnessFactor" : 0.5527864098548889
            }
        }
    ],
    "meshes" : [
        {
            "name" : "Mesh",
            "primitives" : [
                {
                    "attributes" : {
                        "POSITION" : 0,
                        "NORMAL" : 1,
                        "TEXCOORD_0" : 2
                    },
                    "indices" : 3,
                    "material" : 0
                }
            ]
        },
        {
            "name" : "Mesh.001",
            "primitives" : [
                {
                    "attributes" : {
                        "POSITION" : 4,
                        "NORMAL" : 5,
                        "TEXCOORD_0" : 6
                    },
                    "indices" : 7,
                    "material" : 1
                }
            ]
        },
        {
            "name" : "Mesh.002",
            "primitives" : [
                {
                    "attributes" : {
                        "POSITION" : 8,
                        "NORMAL" : 9,
                        "TEXCOORD_0" : 10
                    },
                    "indices" : 11,
                    "material" : 1
                }
            ]
        },
        {
            "name" : "Mesh.003",
            "primitives" : [
                {
                    "attributes" : {
                        "POSITION" : 12,
                        "NORMAL" : 13,
                        "TEXCOORD_0" : 14
                    },
                    "indices" : 15,
                    "material" : 1
                }
            ]
        },
        {
            "name" : "Mesh.004",
            "primitives" : [
                {
                    "attributes" : {
                        "POSITION" : 16,
                        "NORMAL" : 17,
                        "TEXCOORD_0" : 18
                    },
                    "indices" : 19,
                    "material" : 1
                }
            ]
        },
        {
            "name" : "Mesh.005",
            "primitives" : [
                {
                    "attributes" : {
                        "POSITION" : 20,
                        "NORMAL" : 21,
                        "TEXCOORD_0" : 22
                    },
                    "indices" : 23,
                    "material" : 1
                }
            ]
        }
    ],
    "accessors" : [
        {
            "bufferView" : 0,
            "componentType" : 5126,
            "count" : 30,
            "max" : [
                5,
                2.5,
                0.09999990463256836
            ],
            "min" : [
                -5,
                -2.5,
                -0.10000038146972656
            ],
            "type" : "VEC3"
        },
        {
            "bufferView" : 1,
            "componentType" : 5126,
            "count" : 30,
            "type" : "VEC3"
        },
        {
            "bufferView" : 2,
            "componentType" : 5126,
            "count" : 30,
            "type" : "VEC2"
        },
        {
            "bufferView" : 3,
            "componentType" : 5123,
            "count" : 48,
            "type" : "SCALAR"
        },
        {
            "bufferView" : 4,
            "componentType" : 5126,
            "count" : 392,
            "max" : [
                0.20057010650634766,
                2.4387576580047607,
                3.8969311714172363
            ],
            "min" : [
                0.0005698204040527344,
                -2.5612425804138184,
                -0.10306930541992188
            ],
            "type" : "VEC3"
        },
        {
            "bufferView" : 5,
            "componentType" : 5126,
            "count" : 392,
            "type" : "VEC3"
        },
        {
            "bufferView" : 6,
            "componentType" : 5126,
            "count" : 392,
            "type" : "VEC2"
        },
        {
            "bufferView" : 7,
            "componentType" : 5123,
            "count" : 840,
            "type" : "SCALAR"
        },
        {
            "bufferView" : 8,
            "componentType" : 5126,
            "count" : 68,
            "max" : [
                0,
                4.747804641723633,
                1.000000238418579
            ],
            "min" : [
                -0.19999980926513672,
                -2.384185791015625e-07,
                -6.899999618530273
            ],
            "type" : "VEC3"
        },
        {
            "bufferView" : 9,
            "componentType" : 5126,
            "count" : 68,
            "type" : "VEC3"
        },
        {
            "bufferView" : 10,
            "componentType" : 5126,
            "count" : 68,
            "type" : "VEC2"
        },
        {
            "bufferView" : 11,
            "componentType" : 5123,
            "count" : 102,
            "type" : "SCALAR"
        },
        {
            "bufferView" : 12,
            "componentType" : 5126,
            "count" : 596,
            "max" : [
                4.008569240570068,
                -0.0005848407745361328,
                1.6742322444915771
            ],
            "min" : [
                -0.14416980743408203,
                -0.31606459617614746,
                -1.6399242877960205
            ],
            "type" : "VEC3"
        },
        {
            "bufferView" : 13,
            "componentType" : 5126,
            "count" : 596,
            "type" : "VEC3"
        },
        {
            "bufferView" : 14,
            "componentType" : 5126,
            "count" : 596,
            "type" : "VEC2"
        },
        {
            "bufferView" : 15,
            "componentType" : 5123,
            "count" : 1536,
            "type" : "SCALAR"
        },
        {
            "bufferView" : 16,
            "componentType" : 5126,
            "count" : 4273,
            "max" : [
                5.149999618530273,
                2.3981196880340576,
                3.186381246475436e-16
            ],
            "min" : [
                -5.149999618530273,
                -2.5,
                -9.100000381469727
            ],
            "type" : "VEC3"
        },
        {
            "bufferView" : 17,
            "componentType" : 5126,
            "count" : 4273,
            "type" : "VEC3"
        },
        {
            "bufferView" : 18,
            "componentType" : 5126,
            "count" : 4273,
            "type" : "VEC2"
        },
        {
            "bufferView" : 19,
            "componentType" : 5123,
            "count" : 10788,
            "type" : "SCALAR"
        },
        {
            "bufferView" : 20,
            "componentType" : 5126,
            "count" : 596,
            "max" : [
                9.5367431640625e-07,
                -2.384185791015625e-07,
                0
            ],
            "min" : [
                -4.152738094329834,
                -0.31547999382019043,
                -3.3141567707061768
            ],
            "type" : "VEC3"
        },
        {
            "bufferView" : 21,
            "componentType" : 5126,
            "count" : 596,
            "type" : "VEC3"
        },
        {
            "bufferView" : 22,
            "componentType" : 5126,
            "count" : 596,
            "type" : "VEC2"
        },
        {
            "bufferView" : 23,
            "componentType" : 5123,
            "count" : 1536,
            "type" : "SCALAR"
        },
        {
            "bufferView" : 24,
            "componentType" : 5126,
            "count" : 100,
            "max" : [
                4.166666666666667
            ],
            "min" : [
                0.041666666666666664
            ],
            "type" : "SCALAR"
        },
        {
            "bufferView" : 25,
            "componentType" : 5126,
            "count" : 100,
            "type" : "VEC4"
        },
        {
            "bufferView" : 26,
            "componentType" : 5126,
            "count" : 41,
            "max" : [
                4.166666666666667
            ],
            "min" : [
                2.5
            ],
            "type" : "SCALAR"
        },
        {
            "bufferView" : 27,
            "componentType" : 5126,
            "count" : 41,
            "type" : "VEC4"
        },
        {
            "bufferView" : 28,
            "componentType" : 5126,
            "count" : 100,
            "type" : "VEC4"
        },
        {
            "bufferView" : 29,
            "componentType" : 5126,
            "count" : 100,
            "type" : "VEC4"
        }
    ],
    "bufferViews" : [
        {
            "buffer" : 0,
            "byteLength" : 360,
            "byteOffset" : 0
        },
        {
            "buffer" : 0,
            "byteLength" : 360,
            "byteOffset" : 360
        },
        {
            "buffer" : 0,
            "byteLength" : 240,
            "byteOffset" : 720
        },
        {
            "buffer" : 0,
            "byteLength" : 96,
            "byteOffset" : 960
        },
        {
            "buffer" : 0,
            "byteLength" : 4704,
            "byteOffset" : 1056
        },
        {
            "buffer" : 0,
            "byteLength" : 4704,
            "byteOffset" : 5760
        },
        {
            "buffer" : 0,
            "byteLength" : 3136,
            "byteOffset" : 10464
        },
        {
            "buffer" : 0,
            "byteLength" : 1680,
            "byteOffset" : 13600
        },
        {
            "buffer" : 0,
            "byteLength" : 816,
            "byteOffset" : 15280
        },
        {
            "buffer" : 0,
            "byteLength" : 816,
            "byteOffset" : 16096
        },
        {
            "buffer" : 0,
            "byteLength" : 544,
            "byteOffset" : 16912
        },
        {
            "buffer" : 0,
            "byteLength" : 204,
            "byteOffset" : 17456
        },
        {
            "buffer" : 0,
            "byteLength" : 7152,
            "byteOffset" : 17660
        },
        {
            "buffer" : 0,
            "byteLength" : 7152,
            "byteOffset" : 24812
        },
        {
            "buffer" : 0,
            "byteLength" : 4768,
            "byteOffset" : 31964
        },
        {
            "buffer" : 0,
            "byteLength" : 3072,
            "byteOffset" : 36732
        },
        {
            "buffer" : 0,
            "byteLength" : 51276,
            "byteOffset" : 39804
        },
        {
            "buffer" : 0,
            "byteLength" : 51276,
            "byteOffset" : 91080
        },
        {
            "buffer" : 0,
            "byteLength" : 34184,
            "byteOffset" : 142356
        },
        {
            "buffer" : 0,
            "byteLength" : 21576,
            "byteOffset" : 176540
        },
        {
            "buffer" : 0,
            "byteLength" : 7152,
            "byteOffset" : 198116
        },
        {
            "buffer" : 0,
            "byteLength" : 7152,
            "byteOffset" : 205268
        },
        {
            "buffer" : 0,
            "byteLength" : 4768,
            "byteOffset" : 212420
        },
        {
            "buffer" : 0,
            "byteLength" : 3072,
            "byteOffset" : 217188
        },
        {
            "buffer" : 0,
            "byteLength" : 400,
            "byteOffset" : 220260
        },
        {
            "buffer" : 0,
            "byteLength" : 1600,
            "byteOffset" : 220660
        },
        {
            "buffer" : 0,
            "byteLength" : 164,
            "byteOffset" : 222260
        },
        {
            "buffer" : 0,
            "byteLength" : 656,
            "byteOffset" : 222424
        },
        {
            "buffer" : 0,
            "byteLength" : 1600,
            "byteOffset" : 223080
        },
        {
            "buffer" : 0,
            "byteLength" : 1600,
            "byteOffset" : 224680
        }
    ],
    "buffers" : [
        {
            "byteLength" : 226280,
            "uri" : "data:application/octet-stream;base64,"
        }
    ]
}
